# xmcd CD database file
#
# Track frame offsets:
#	150
#	15522
#	50854
#	78772
#	107356
#	138674
#	170601
#	196519
#	230274
#	262225
#	312103
#
# Disc length: 4548 seconds
#
# Revision: 0
# Processed by: cddbd v1.5.2PL0 Copyright (c) Steve Scherf et al.
# Submitted via: CDex 1.51
#
DISCID=8811c20b
DTITLE=Ron Davis - Subarashii Live
DYEAR=2006
DGENRE=Jazz
TTITLE0=Allelujah
TTITLE1=Mio Latino
TTITLE2=Whirlycurl
TTITLE3=Applausable Excuse
TTITLE4=Upside Downes
TTITLE5=Reel de Pointe-au-Pic
TTITLE6=Roundly WarrenTed
TTITLE7=D'Hora
TTITLE8=The Nearness Of You
TTITLE9=Thomachonga
TTITLE10=Allelujah-encore
EXTD=YEAR: 2006
EXTT0=
EXTT1=
EXTT2=
EXTT3=
EXTT4=
EXTT5=
EXTT6=
EXTT7=
EXTT8=
EXTT9=
EXTT10=
PLAYORDER=
